<?xml version="1.0" encoding="UTF-8"?>
<svg id="Camada_1" data-name="Camada 1" xmlns="http://www.w3.org/2000/svg" viewBox="0 0 270 70">
  <defs>
    <style>
      .cls-1 {
        fill: none;
      }

      .cls-2 {
        fill: #0278fe;
      }

      .cls-3 {
        fill: #fff;
      }

      .cls-4 {
        fill: #2a2c2f;
      }
    </style>
  </defs>
  <rect class="cls-1" width="270" height="70"/>
  <path class="cls-3" d="m.32,69h3.95v-4.32h2.19c3.32,0,5.54-1.95,5.54-5.09s-2.17-5.14-5.4-5.14H.32v14.55Zm3.95-7.39v-4.01h1.39c1.38,0,2.22.74,2.22,1.99s-.83,2.02-2.22,2.02h-1.39Z"/>
  <path class="cls-3" d="m13.45,69h3.95v-4.8h1.36l2.56,4.8h4.29l-2.95-5.43c1.55-.75,2.47-2.16,2.47-4.18,0-3.1-2.17-4.94-5.4-4.94h-6.28v14.55Zm3.95-7.87v-3.52h1.39c1.39,0,2.22.54,2.22,1.79s-.83,1.73-2.22,1.73h-1.39Z"/>
  <path class="cls-3" d="m30.58,69l.84-2.78h4.8l.84,2.78h4.26l-4.8-14.55h-5.4l-4.8,14.55h4.26Zm1.73-5.74l1.45-4.8h.11l1.45,4.8h-3.01Z"/>
  <path class="cls-3" d="m55.62,59.91c-.31-3.61-2.95-5.65-6.62-5.65-3.92,0-7.02,2.61-7.02,7.47s3.01,7.47,7.02,7.47c4.26,0,6.42-2.95,6.62-5.43l-4.01-.03c-.2,1.24-1.08,2.02-2.53,2.02-1.92,0-3.04-1.36-3.04-4.03,0-2.53,1.08-4.03,3.07-4.03,1.52,0,2.39.89,2.5,2.22h4.01Z"/>
  <path class="cls-3" d="m57.01,57.64h4.38v11.36h3.89v-11.36h4.38v-3.18h-12.64v3.18Z"/>
  <path class="cls-3" d="m75.09,54.45h-3.95v14.55h3.95v-14.55Z"/>
  <path class="cls-3" d="m90.54,59.91c-.31-3.61-2.95-5.65-6.62-5.65-3.92,0-7.02,2.61-7.02,7.47s3.01,7.47,7.02,7.47c4.26,0,6.42-2.95,6.62-5.43l-4.01-.03c-.2,1.24-1.08,2.02-2.53,2.02-1.92,0-3.04-1.36-3.04-4.03,0-2.53,1.08-4.03,3.07-4.03,1.52,0,2.39.89,2.5,2.22h4.01Z"/>
  <path class="cls-3" d="m100.94,54.45v8.98c0,1.36-.97,2.33-2.33,2.33s-2.33-.97-2.33-2.33v-8.98h-3.95v9.32c0,3.32,2.51,5.4,6.28,5.4s6.28-2.07,6.28-5.4v-9.32h-3.95Z"/>
  <path class="cls-3" d="m106.77,54.45v14.55h3.86v-8.47h.11l3.24,8.35h2.33l3.24-8.3h.11v8.41h3.86v-14.55h-4.92l-3.38,8.24h-.17l-3.38-8.24h-4.91Z"/>
  <path class="cls-3" d="m133.16,69l.84-2.78h4.8l.84,2.78h4.26l-4.8-14.55h-5.4l-4.8,14.55h4.26Zm1.73-5.74l1.45-4.8h.11l1.45,4.8h-3.01Z"/>
  <path class="cls-3" d="m145.3,69h3.95v-4.8h1.36l2.56,4.8h4.29l-2.96-5.43c1.55-.75,2.47-2.16,2.47-4.18,0-3.1-2.17-4.94-5.4-4.94h-6.28v14.55Zm3.95-7.87v-3.52h1.39c1.38,0,2.22.54,2.22,1.79s-.83,1.73-2.22,1.73h-1.39Z"/>
  <path class="cls-3" d="m158.26,57.64h4.38v11.36h3.89v-11.36h4.38v-3.18h-12.64v3.18Z"/>
  <path class="cls-3" d="m185.82,59.26h3.99c-.3-2.92-2.95-5-6.39-5-3.92,0-7.1,2.7-7.1,7.5s2.88,7.44,7.13,7.44c3.81,0,6.53-2.33,6.53-6.31v-2.02h-6.45v2.81h2.64c-.03,1.26-.93,2.07-2.7,2.07-2.04,0-3.1-1.51-3.1-4.06s1.14-4.01,3.12-4.01c1.24,0,2.07.57,2.32,1.56Z"/>
  <path class="cls-3" d="m195.15,69l.84-2.78h4.8l.84,2.78h4.26l-4.8-14.55h-5.4l-4.8,14.55h4.26Zm1.73-5.74l1.45-4.8h.11l1.45,4.8h-3.01Z"/>
  <path class="cls-3" d="m207.29,69h9.83v-3.18h-5.88v-11.36h-3.95v14.55Z"/>
  <path class="cls-3" d="m218.72,69h9.83v-3.18h-5.88v-11.36h-3.95v14.55Z"/>
  <path class="cls-3" d="m230.15,69h10.45v-3.18h-6.51v-2.5h5.99v-3.18h-5.99v-2.5h6.53v-3.18h-10.48v14.55Z"/>
  <path class="cls-3" d="m242.59,69h3.95v-4.8h1.36l2.56,4.8h4.29l-2.96-5.43c1.55-.75,2.47-2.16,2.47-4.18,0-3.1-2.17-4.94-5.4-4.94h-6.28v14.55Zm3.95-7.87v-3.52h1.39c1.38,0,2.22.54,2.22,1.79s-.83,1.73-2.22,1.73h-1.39Z"/>
  <path class="cls-3" d="m254.66,54.45l5.34,9.97v4.57h3.92v-4.57l5.34-9.97h-4.4l-2.84,5.91h-.11l-2.84-5.91h-4.4Z"/>
  <path class="cls-2" d="m118,2c0-1.1.89-2,2-2h28c1.1,0,2,.9,2,2v28c0,1.1-.9,2-2,2h-28c-1.11,0-2-.9-2-2V2Z"/>
  <path class="cls-4" d="m150,6h-32v2h32v-2Z"/>
  <path class="cls-4" d="m131,6h-2v26h2V6Z"/>
</svg>